Coordinates
version=1
nRows=17
nColumns=38
inDegrees=no

Units are S.I. units (second, meters, Newtons, ...)
If the header above contains a line with 'inDegrees', this indicates whether rotational values are in degrees (yes) or radians (no).

endheader
time	pelvis_tilt	pelvis_list	pelvis_rotation	pelvis_tx	pelvis_ty	pelvis_tz	hip_flexion_r	hip_adduction_r	hip_rotation_r	knee_angle_r	ankle_angle_r	subtalar_angle_r	mtp_angle_r	hip_flexion_l	hip_adduction_l	hip_rotation_l	knee_angle_l	ankle_angle_l	subtalar_angle_l	mtp_angle_l	lumbar_extension	lumbar_bending	lumbar_rotation	arm_flex_r	arm_add_r	arm_rot_r	elbow_flex_r	pro_sup_r	wrist_flex_r	wrist_dev_r	arm_flex_l	arm_add_l	arm_rot_l	elbow_flex_l	pro_sup_l	wrist_flex_l	wrist_dev_l
1.05	0.0272219	1.4456	1.61013	0.642841	0.772295	1.01995	0.187639	-0.0960876	0.0304147	1.01631	-0.606425	0	0	0.359917	0.0110191	-0.321381	0.424119	-0.0357951	0	0	-0.156491	-0.080796	0.096556	-0.108483	-0.349843	0.513779	0.567774	0.803482	0	0	-0.087417	-0.424681	0.347265	0.619793	1.23127	0	0
1.06	0.0438688	1.44109	1.59304	0.641273	0.785431	1.02109	0.222993	-0.0925297	0.0345831	1.05038	-0.552803	0	0	0.348394	0.00881193	-0.323759	0.417919	-0.0296358	0	0	-0.14843	-0.0764152	0.0915891	-0.109931	-0.352668	0.507177	0.571269	0.816808	0	0	-0.0913064	-0.425487	0.337722	0.625713	1.23726	0	0
1.07	0.0680191	1.43797	1.56948	0.639642	0.798417	1.02267	0.253199	-0.08824	0.0380316	1.07034	-0.499746	0	0	0.334942	0.00655351	-0.323668	0.410641	-0.0249478	0	0	-0.142876	-0.0707428	0.0865041	-0.108944	-0.355251	0.504125	0.57154	0.829238	0	0	-0.0924685	-0.425869	0.329893	0.630053	1.244	0	0
1.08	0.099442	1.44243	1.54187	0.637632	0.811694	1.02527	0.265648	-0.0872631	0.0105442	1.06113	-0.456189	0	0	0.311423	0.00483193	-0.324154	0.400683	-0.0223743	0	0	-0.147211	-0.0635655	0.0790473	-0.105937	-0.358325	0.502443	0.570944	0.838692	0	0	-0.0904195	-0.426237	0.324081	0.633838	1.24896	0	0
1.09	0.112407	1.44551	1.53142	0.635874	0.824809	1.0276	0.29279	-0.0913433	-0.0223123	1.07178	-0.42764	0	0	0.289047	0.00536218	-0.327222	0.390631	-0.0213229	0	0	-0.150252	-0.0592481	0.0733316	-0.104028	-0.361325	0.500079	0.571886	0.845215	0	0	-0.0874475	-0.428609	0.321407	0.638898	1.25143	0	0
1.1	0.142938	1.44754	1.50155	0.634452	0.837577	1.03017	0.311967	-0.0871665	-0.030208	1.06449	-0.391233	0	0	0.267593	0.00324113	-0.327989	0.379481	-0.0215696	0	0	-0.153617	-0.053008	0.0702525	-0.100222	-0.363884	0.499533	0.570399	0.851786	0	0	-0.0815278	-0.430735	0.321579	0.641944	1.25336	0	0
1.11	0.166955	1.44014	1.47157	0.634001	0.849742	1.03182	0.338058	-0.0726772	0.0268306	1.05755	-0.346981	0	0	0.257196	-0.000382647	-0.328091	0.369192	-0.0218934	0	0	-0.1463	-0.0478712	0.0740291	-0.0970795	-0.365172	0.499879	0.567221	0.857304	0	0	-0.0755896	-0.433264	0.323162	0.643998	1.25503	0	0
1.12	0.206931	1.43689	1.42712	0.633273	0.862146	1.03407	0.355747	-0.0589984	0.0495105	1.03708	-0.305585	0	0	0.24115	-0.00596016	-0.329018	0.357092	-0.0234564	0	0	-0.144119	-0.0399324	0.0769112	-0.0929916	-0.367367	0.50288	0.563555	0.862938	0	0	-0.0677838	-0.434812	0.326245	0.644532	1.25686	0	0
1.13	0.208974	1.42912	1.41837	0.633081	0.874349	1.03515	0.387784	-0.0500447	0.0916177	1.03927	-0.267725	0	0	0.231152	-0.00777887	-0.331705	0.346356	-0.0243929	0	0	-0.135625	-0.0375801	0.0810312	-0.0924028	-0.368874	0.503669	0.564654	0.868224	0	0	-0.063907	-0.440338	0.328147	0.651814	1.25848	0	0
1.14	0.236751	1.42536	1.3866	0.63242	0.886704	1.03695	0.405317	-0.0394106	0.104012	1.01165	-0.232391	0	0	0.215223	-0.0123508	-0.334471	0.333237	-0.0265576	0	0	-0.133305	-0.0311391	0.0829589	-0.0898671	-0.370977	0.5057	0.564282	0.873721	0	0	-0.0576927	-0.443928	0.330364	0.656722	1.26116	0	0
1.15	0.170623	1.42897	1.45648	0.63153	0.900055	1.03684	0.380344	-0.0715422	0.134447	0.840548	-0.222062	0	0	0.192343	-0.000617654	-0.341077	0.319851	-0.0269054	0	0	-0.132564	-0.0404535	0.0753238	-0.101417	-0.373257	0.492607	0.585217	0.880932	0	0	-0.0621571	-0.459892	0.331746	0.682177	1.259	0	0
1.16	0.258645	1.44417	1.37761	0.629477	0.913442	1.04047	0.388766	-0.0460214	-0.0246535	0.79365	-0.202187	0	0	0.152013	-0.00848771	-0.343439	0.300568	-0.0326272	0	0	-0.154317	-0.026757	0.0663802	-0.100271	-0.377254	0.48641	0.592073	0.888792	0	0	-0.0521762	-0.462952	0.33465	0.689549	1.26127	0	0
1.17	0.27305	1.44044	1.36409	0.628606	0.925721	1.04157	0.406683	-0.0416882	-0.030992	0.767058	-0.173465	0	0	0.135742	-0.00984097	-0.345045	0.285535	-0.0366868	0	0	-0.152101	-0.0221243	0.0636508	-0.101468	-0.37822	0.481448	0.596815	0.89673	0	0	-0.04785	-0.467843	0.332444	0.699404	1.26526	0	0
1.18	0.283452	1.43568	1.35589	0.627711	0.938035	1.0424	0.424664	-0.0383241	-0.0385244	0.733307	-0.151251	0	0	0.120744	-0.0107952	-0.346211	0.270689	-0.0411901	0	0	-0.148355	-0.0178054	0.0590954	-0.102208	-0.377914	0.47735	0.599758	0.904544	0	0	-0.0449371	-0.47247	0.327307	0.709633	1.27027	0	0
1.19	0.291775	1.43061	1.35086	0.626752	0.950345	1.043	0.44174	-0.03595	-0.0467242	0.693635	-0.138887	0	0	0.106156	-0.0112848	-0.347307	0.25554	-0.0453195	0	0	-0.144293	-0.0136151	0.0536075	-0.10298	-0.377377	0.474148	0.602453	0.909985	0	0	-0.0422612	-0.476967	0.321126	0.720272	1.27596	0	0
1.2	0.29959	1.42536	1.34751	0.625781	0.962629	1.04338	0.457407	-0.0340148	-0.0552747	0.649431	-0.130348	0	0	0.0921687	-0.0119835	-0.347683	0.241549	-0.0496248	0	0	-0.140276	-0.00939598	0.0470071	-0.103534	-0.37633	0.471216	0.604579	0.914683	0	0	-0.0401386	-0.48106	0.312693	0.731495	1.28262	0	0
1.21	0.306325	1.41994	1.34634	0.624761	0.974901	1.04351	0.471307	-0.0325398	-0.0635928	0.600327	-0.125541	0	0	0.0789139	-0.0129405	-0.347862	0.228767	-0.0537235	0	0	-0.136216	-0.00514763	0.0394455	-0.103661	-0.375181	0.468894	0.605795	0.918773	0	0	-0.0383025	-0.484655	0.302862	0.742903	1.28959	0	0
